Format                                   : MPEG-4
Format profile                           : Base Media / Version 2
Codec ID                                 : mp42
File size                                : 697 MiB
Duration                                 : 56mn 31s
Overall bit rate mode                    : Variable
Overall bit rate                         : 1 724 Kbps

Video
ID                                       : 1
Format                                   : AVC
Format/Info                              : Advanced Video Codec
Format profile                           : High@L3.1
Format settings, CABAC                   : Yes
Format settings, ReFrames                : 4 frames
Codec ID                                 : avc1
Codec ID/Info                            : Advanced Video Coding
Duration                                 : 56mn 31s
Bit rate mode                            : Variable
Bit rate                                 : 1 658 Kbps
Maximum bit rate                         : 3 533 Kbps
Width                                    : 720 pixels
Height                                   : 540 pixels
Display aspect ratio                     : 4:3
Frame rate mode                          : Constant
Frame rate                               : 29.970 fps
Standard                                 : NTSC
Color space                              : YUV
Chroma subsampling                       : 4:2:0
Bit depth                                : 8 bits
Scan type                                : Progressive
Bits/(Pixel*Frame)                       : 0.142
Stream size                              : 670 MiB (96%)
Language                                 : English

Audio
ID                                       : 2
Format                                   : AAC
Format/Info                              : Advanced Audio Codec
Format profile                           : LC
Codec ID                                 : 40
Duration                                 : 56mn 31s
Bit rate mode                            : Variable
Bit rate                                 : 61.9 Kbps
Maximum bit rate                         : 72.0 Kbps
Channel(s)                               : 2 channels
Channel positions                        : Front: L R
Sampling rate                            : 48.0 KHz
Compression mode                         : Lossy
Stream size                              : 25.0 MiB (4%)
Title                                    : Dolby Digital 5.1-ch 48KHz
Language                                 : English

Screens  http://bayimg.com/oAmiLaAEi

         http://bayimg.com/OAMIMAaei

         http://bayimg.com/oaMinAAEI  

Enjoy.